# xmcd
#
# Track frame offsets:
#        150
#        15101
#        37160
#        53713
#        68210
#        82139
#        97095
#        119827
#        146212
#        176883
#        189097
#        208527
#        250328
#        325520
#
# Disc length: 4606 seconds
#
# Revision: 3
# Processed by: cddbd v1.5.1PL2 Copyright (c) Steve Scherf et al.
# Submitted via: ExactAudioCopy v0.95b3
#
DISCID=cb11fc0e
DTITLE=Jeff Beck - Beckology (Volume 2)
DYEAR=1991
DGENRE=Rock
TTITLE0=Shape Of Things - Jeff Beck Group
TTITLE1=I Ain't Superstitious - Jeff Beck Group
TTITLE2=Rock My Plimsoul - Jeff Beck Group
TTITLE3=Jailhouse Rock - Jeff Beck Group
TTITLE4=Plynth (Water Down The Drain) - Jeff Beck Group
TTITLE5=Drinking Again - Jeff Beck Group
TTITLE6=Definitely Maybe - Jeff Beck Group
TTITLE7=New Ways Train Train - Jeff Beck Group
TTITLE8=Going Down - Jeff Beck Group
TTITLE9=I Can't Give Back The Love I Feel For You - Jeff Beck Group
TTITLE10=Superstition - Beck, Bogert, Appice
TTITLE11=Black Cat Moan (Live) - Beck, Bogert, Appice
TTITLE12=Blues DeLuxe/BBA Boogie (Live) - Beck, Bogert, Appice
TTITLE13=Jizz Whizz - Beck, Bogert, Appice
EXTD=
EXTT0=
EXTT1=
EXTT2=
EXTT3=
EXTT4=
EXTT5=
EXTT6=
EXTT7=
EXTT8=
EXTT9=
EXTT10=
EXTT11=
EXTT12=
EXTT13=
PLAYORDER=
